<?xml version="1.0" encoding="utf-8"?>
<!-- Generator: Adobe Illustrator 16.0.0, SVG Export Plug-In . SVG Version: 6.00 Build 0)  -->
<!DOCTYPE svg PUBLIC "-//W3C//DTD SVG 1.1//EN" "http://www.w3.org/Graphics/SVG/1.1/DTD/svg11.dtd">
<svg version="1.1" id="Layer_1" xmlns="http://www.w3.org/2000/svg" xmlns:xlink="http://www.w3.org/1999/xlink" x="0px" y="0px"
	 width="170px" height="170px" viewBox="0 0 170 170" style="enable-background:new 0 0 170 170;" xml:space="preserve">
<g>
	<g style="opacity:0.3;">
		<defs>
			<rect id="SVGID_1_" x="1.8" y="14" style="opacity:0.3;" width="166.5" height="142"/>
		</defs>
		<clipPath id="SVGID_2_">
			<use xlink:href="#SVGID_1_"  style="overflow:visible;"/>
		</clipPath>
		<g style="clip-path:url(#SVGID_2_);enable-background:new    ;">
			<g>
				<defs>
					<rect id="SVGID_3_" x="1.8" y="13" width="167" height="143"/>
				</defs>
				<clipPath id="SVGID_4_">
					<use xlink:href="#SVGID_3_"  style="overflow:visible;"/>
				</clipPath>
				<path style="clip-path:url(#SVGID_4_);fill:#3A8AC9;" d="M23.8,82.1V85c0,33.8,27.4,61.2,61.2,61.2c2.7,0,4.9,2.2,4.9,4.9
					c0,2.7-2.2,4.9-4.9,4.9c-39.2,0-71-31.8-71-71v-2.9L10.1,86c-1.9,1.9-5,1.9-6.9,0s-1.9-5,0-6.9l12.2-12.2c1.9-1.9,5-1.9,6.9,0
					l12.2,12.2c1.9,1.9,1.9,5,0,6.9s-5,1.9-6.9,0L23.8,82.1z"/>
				<path style="clip-path:url(#SVGID_4_);fill:#3A8AC9;" d="M146.2,87.9V85c0-33.8-27.4-61.2-61.2-61.2c-2.7,0-4.9-2.2-4.9-4.9
					S82.3,14,85,14c39.2,0,71,31.8,71,71v2.9l3.9-3.9c1.9-1.9,5-1.9,6.9,0c1.9,1.9,1.9,5,0,6.9l-12.2,12.2c-1.9,1.9-5,1.9-6.9,0
					l-12.2-12.2c-1.9-1.9-1.9-5,0-6.9c1.9-1.9,5-1.9,6.9,0L146.2,87.9z"/>
			</g>
		</g>
	</g>
	<path style="fill:#FDD500;" d="M43.2,94.1l1.7-2.7c0.1-0.2,0.3-0.3,0.5-0.5c0.2-0.1,0.5-0.2,0.7-0.2c0.3,0,0.7,0.1,1,0.3
		s0.7,0.5,1.2,0.7c0.4,0.3,0.9,0.5,1.5,0.7c0.6,0.2,1.2,0.3,2,0.3c1,0,1.8-0.2,2.4-0.7c0.6-0.5,0.9-1.2,0.9-2.2c0-0.6-0.2-1-0.5-1.4
		c-0.3-0.4-0.7-0.7-1.2-0.9c-0.5-0.2-1.1-0.4-1.8-0.6s-1.3-0.4-2-0.6c-0.7-0.2-1.4-0.5-2-0.8c-0.7-0.3-1.2-0.7-1.8-1.3
		c-0.5-0.5-0.9-1.2-1.3-2c-0.3-0.8-0.5-1.8-0.5-2.9c0-0.9,0.2-1.8,0.6-2.7c0.4-0.9,0.9-1.7,1.7-2.4c0.7-0.7,1.6-1.2,2.7-1.7
		c1.1-0.4,2.3-0.6,3.6-0.6c0.8,0,1.5,0.1,2.2,0.2c0.7,0.1,1.4,0.3,2,0.5c0.6,0.2,1.2,0.5,1.8,0.8c0.6,0.3,1.1,0.7,1.5,1.1l-1.4,2.7
		c-0.2,0.3-0.3,0.5-0.5,0.6c-0.2,0.1-0.4,0.2-0.7,0.2c-0.3,0-0.6-0.1-0.9-0.2s-0.6-0.3-1-0.5s-0.8-0.4-1.3-0.6
		c-0.5-0.2-1-0.2-1.7-0.2c-1.1,0-1.9,0.2-2.4,0.7c-0.5,0.5-0.8,1.1-0.8,1.9c0,0.5,0.2,0.9,0.5,1.2c0.3,0.3,0.7,0.6,1.2,0.8
		c0.5,0.2,1.1,0.5,1.8,0.7c0.7,0.2,1.3,0.4,2,0.7c0.7,0.2,1.4,0.5,2,0.9c0.7,0.3,1.3,0.7,1.8,1.3c0.5,0.5,0.9,1.1,1.3,1.9
		c0.3,0.7,0.5,1.6,0.5,2.6c0,1.1-0.2,2.2-0.6,3.2c-0.4,1-1,1.9-1.7,2.6c-0.8,0.7-1.7,1.3-2.8,1.7c-1.1,0.4-2.4,0.6-3.8,0.6
		c-0.8,0-1.6-0.1-2.4-0.2c-0.8-0.2-1.6-0.4-2.3-0.7c-0.8-0.3-1.5-0.6-2.1-1C44.2,95,43.7,94.6,43.2,94.1"/>
	<path style="fill:#FDD500;" d="M65.5,97.1V72.4h8.7c1.7,0,3.2,0.2,4.5,0.6c1.2,0.4,2.3,1,3.1,1.7s1.4,1.6,1.8,2.6
		c0.4,1,0.6,2,0.6,3.2c0,1.2-0.2,2.4-0.6,3.4c-0.4,1-1,1.9-1.8,2.6c-0.8,0.7-1.8,1.3-3.1,1.7c-1.3,0.4-2.7,0.6-4.4,0.6h-3v8.3H65.5z
		 M71.3,84.5h3c1.5,0,2.6-0.4,3.2-1.1c0.7-0.7,1-1.7,1-3c0-0.6-0.1-1.1-0.3-1.5c-0.2-0.5-0.4-0.9-0.8-1.2c-0.3-0.3-0.8-0.6-1.3-0.8
		c-0.5-0.2-1.1-0.3-1.9-0.3h-3V84.5z"/>
	<rect x="88.8" y="72.4" style="fill:#FDD500;" width="5.7" height="24.7"/>
	<path style="fill:#FDD500;" d="M101,97.1V72.4h3c0.3,0,0.5,0,0.6,0c0.2,0,0.3,0.1,0.4,0.1c0.1,0.1,0.3,0.1,0.4,0.3
		c0.1,0.1,0.3,0.3,0.4,0.5l11.8,14.8c-0.1-0.5-0.1-0.9-0.1-1.4c0-0.4,0-0.9,0-1.2V72.4h5v24.7h-3c-0.4,0-0.8-0.1-1.1-0.2
		s-0.6-0.4-0.9-0.7l-11.7-14.7c0,0.4,0.1,0.9,0.1,1.3s0,0.8,0,1.2v13.2H101z"/>
</g>
</svg>
